<?xml version="1.0" encoding="utf-8"?>
<!-- Generator: Adobe Illustrator 23.0.3, SVG Export Plug-In . SVG Version: 6.00 Build 0)  -->
<svg version="1.1" id="Layer_1" xmlns="http://www.w3.org/2000/svg" xmlns:xlink="http://www.w3.org/1999/xlink" x="0px" y="0px"
	 viewBox="0 0 622.6 283.1" style="enable-background:new 0 0 622.6 283.1;" xml:space="preserve">
<style type="text/css">
	.st0{fill:#202020;}
	.st1{fill:#FFFFFF;}
	.st2{fill:#231F20;}
	.st3{font-family:'KohinoorDevanagari-Medium';}
	.st4{font-size:164.2px;}
</style>
<title>earbuds</title>
<g>
	<path class="st0" d="M253.7,78c0-20.2,0-40.3,0-60.5c0-7,3.1-11.4,10.1-12.2c6.1-0.7,12.5-0.6,18.6,0c5.6,0.5,9.7,5.3,10.6,10.8
		c0.4,2.5,0.5,5,0.5,7.5c0,26.2-0.2,52.4-0.2,78.7c0,3.9,0.4,7.8,0.5,11.7c0,2.3,0.9,2.5,3,2.1c3.8-0.8,7.7-1.6,11.6-1.8
		c14.5-0.8,25.9,5.7,35.6,15.8c0.5,0.5,0.8,1.1,1.3,1.5c5.8,4.4,7.1,10.5,6.8,17.4c-0.3,7.9-0.2,15.9-0.2,23.8
		c0,4.3-1.8,7.8-4.8,10.9c-8.7,9.1-18.7,15.9-31.3,18.5c-21.6,4.5-40.3-4.2-50.7-23.7c-7.6-14.2-11.4-29.3-11.4-45.4
		C253.7,114.8,253.7,96.4,253.7,78z M288.6,126.3c-0.2-0.7-0.6-1.5-0.7-2.3c-0.6-6.1-1.4-12.3-1.6-18.4c-0.3-7.8-0.1-15.7-0.1-23.5
		c0-19.5,0.1-39,0.2-58.5c0-2.1,0.9-4.7,0-6.2c-1.3-2.2-3.7-4.6-6-5.1c-4.4-0.9-9.2-1.3-13.5-0.5c-4.2,0.8-7.1,3.2-7.1,9
		c0.1,34.6,0,69.2,0.1,103.8c0,5.9,0.3,11.9,1.2,17.7c1.3,8.8,3.3,17.4,7.1,25.5c4.9,10.4,10.8,19.6,21.8,24.9
		c11.7,5.6,22.8,4.1,33.9-0.8c7.5-3.3,13.2-9,18.8-14.8c1.6-1.6,2.4-3.3,2.4-5.7c-0.2-8.9,0-17.7-0.1-26.6c0-1.3-0.5-3-1.4-3.9
		c-4.5-4.4-9-9-14-12.9c-5.6-4.4-12.1-7-19.5-6.8C302.5,121.4,295.8,123.8,288.6,126.3z"/>
	<path class="st1" d="M288.6,126.3c7.2-2.4,13.9-4.9,21.3-5c7.4-0.2,13.9,2.4,19.5,6.8c5,3.9,9.5,8.4,14,12.9
		c0.9,0.9,1.4,2.6,1.4,3.9c0.1,8.9,0,17.7,0.1,26.6c0.1,2.4-0.8,4.1-2.4,5.7c-5.6,5.8-11.4,11.5-18.8,14.8
		c-11.1,4.9-22.2,6.4-33.9,0.8c-11-5.3-16.9-14.5-21.8-24.9c-3.8-8.1-5.9-16.8-7.1-25.5c-0.8-5.8-1.2-11.8-1.2-17.7
		c-0.1-34.6,0-69.2-0.1-103.8c0-5.8,2.9-8.2,7.1-9c4.4-0.8,9.1-0.4,13.5,0.5c2.3,0.5,4.7,2.9,6,5.1c0.9,1.5,0,4.1,0,6.2
		c-0.1,19.5-0.1,39-0.2,58.5c0,7.8-0.2,15.7,0.1,23.5c0.2,6.2,1,12.3,1.6,18.4C287.9,124.8,288.3,125.5,288.6,126.3z"/>
</g>
<text transform="matrix(1 0 0 1 353.93 200.87)" class="st2 st3 st4">uds</text>
<text transform="matrix(1 0 0 1 0 200.87)" class="st2 st3 st4">ear</text>
<path class="st2" d="M13.7,233.2l18.6-0.8l18.6-0.6l37.2-1.1l37.3-0.9c12.4-0.3,24.8-0.4,37.2-0.6l18.6-0.3l18.6-0.2l37.2-0.4
	l74.5-0.3l74.5,0.3l37.2,0.4l18.6,0.2l18.6,0.3c12.4,0.2,24.8,0.4,37.3,0.6l37.3,0.8l37.2,1.1l18.6,0.6l18.6,0.8l0,0
	c0.2,0,0.3,0.1,0.3,0.3c0,0,0,0,0,0c0,0.2-0.1,0.3-0.3,0.3l-298,0.3l-298-0.3c-0.2,0-0.3-0.1-0.3-0.3l0,0
	C13.5,233.4,13.6,233.2,13.7,233.2C13.7,233.2,13.7,233.2,13.7,233.2L13.7,233.2z"/>
</svg>
