<svg id="Layer_1" data-name="Layer 1" xmlns="http://www.w3.org/2000/svg" xmlns:xlink="http://www.w3.org/1999/xlink" viewBox="0 0 622.56 283.14"><defs><style>.cls-1{font-size:164.2px;font-family:KohinoorDevanagari-Medium, Kohinoor Devanagari;font-weight:500;}.cls-1,.cls-2{fill:#231f20;}</style></defs><title>earbuds</title><image width="182" height="364" transform="matrix(0.56, 0, 0, -0.56, 253.02, 204.69)" xlink:href="../Downloads/airpods_2.png"/><text class="cls-1" transform="translate(353.93 200.87)">uds</text><text class="cls-1" transform="translate(0 200.87)">ear</text><path class="cls-2" d="M7.65,233.24l18.62-.77,18.63-.58,37.25-1.15,37.26-.85c12.41-.27,24.83-.42,37.25-.63l18.63-.3,18.62-.19,37.25-.36,74.51-.27,74.51.28,37.25.36,18.63.2,18.62.29c12.42.22,24.84.35,37.26.64l37.25.84,37.25,1.14,18.63.58,18.63.77h0a.3.3,0,0,1,.29.31.31.31,0,0,1-.3.29l-298,.3-298-.3a.3.3,0,0,1-.3-.3.29.29,0,0,1,.28-.3Z" transform="translate(6.08)"/></svg>